<mxfile host="app.diagrams.net" agent="Mozilla/5.0 (Macintosh; Intel Mac OS X 10_15_7) AppleWebKit/605.1.15 (KHTML, like Gecko) Version/18.5 Safari/605.1.15" version="28.0.9">
  <diagram name="第 1 页" id="8MYgUIBi6J3l37-9P9NG">
    <mxGraphModel dx="1803" dy="671" grid="1" gridSize="10" guides="1" tooltips="1" connect="1" arrows="1" fold="1" page="1" pageScale="1" pageWidth="827" pageHeight="1169" math="0" shadow="0">
      <root>
        <mxCell id="0" />
        <mxCell id="1" parent="0" />
        <mxCell id="nnut025kbKoRGma_upQM-3" value="" style="edgeStyle=orthogonalEdgeStyle;rounded=0;orthogonalLoop=1;jettySize=auto;html=1;" edge="1" parent="1" source="nnut025kbKoRGma_upQM-1" target="nnut025kbKoRGma_upQM-2">
          <mxGeometry relative="1" as="geometry" />
        </mxCell>
        <mxCell id="nnut025kbKoRGma_upQM-1" value="1" style="ellipse;whiteSpace=wrap;html=1;aspect=fixed;" vertex="1" parent="1">
          <mxGeometry x="160" y="240" width="40" height="40" as="geometry" />
        </mxCell>
        <mxCell id="nnut025kbKoRGma_upQM-5" value="" style="edgeStyle=orthogonalEdgeStyle;rounded=0;orthogonalLoop=1;jettySize=auto;html=1;" edge="1" parent="1" source="nnut025kbKoRGma_upQM-2" target="nnut025kbKoRGma_upQM-4">
          <mxGeometry relative="1" as="geometry" />
        </mxCell>
        <mxCell id="nnut025kbKoRGma_upQM-2" value="2" style="ellipse;whiteSpace=wrap;html=1;" vertex="1" parent="1">
          <mxGeometry x="240" y="240" width="40" height="40" as="geometry" />
        </mxCell>
        <mxCell id="nnut025kbKoRGma_upQM-7" value="" style="edgeStyle=orthogonalEdgeStyle;rounded=0;orthogonalLoop=1;jettySize=auto;html=1;" edge="1" parent="1" source="nnut025kbKoRGma_upQM-4" target="nnut025kbKoRGma_upQM-6">
          <mxGeometry relative="1" as="geometry" />
        </mxCell>
        <mxCell id="nnut025kbKoRGma_upQM-4" value="2" style="ellipse;whiteSpace=wrap;html=1;" vertex="1" parent="1">
          <mxGeometry x="320" y="240" width="40" height="40" as="geometry" />
        </mxCell>
        <mxCell id="nnut025kbKoRGma_upQM-9" value="" style="edgeStyle=orthogonalEdgeStyle;rounded=0;orthogonalLoop=1;jettySize=auto;html=1;" edge="1" parent="1" source="nnut025kbKoRGma_upQM-6">
          <mxGeometry relative="1" as="geometry">
            <mxPoint x="480" y="260" as="targetPoint" />
          </mxGeometry>
        </mxCell>
        <mxCell id="nnut025kbKoRGma_upQM-6" value="1" style="ellipse;whiteSpace=wrap;html=1;" vertex="1" parent="1">
          <mxGeometry x="400" y="240" width="40" height="40" as="geometry" />
        </mxCell>
        <mxCell id="nnut025kbKoRGma_upQM-10" value="null" style="text;html=1;align=center;verticalAlign=middle;resizable=0;points=[];autosize=1;strokeColor=none;fillColor=none;" vertex="1" parent="1">
          <mxGeometry x="490" y="245" width="40" height="30" as="geometry" />
        </mxCell>
        <mxCell id="nnut025kbKoRGma_upQM-11" value="1" style="rounded=0;whiteSpace=wrap;html=1;fillColor=#d5e8d4;strokeColor=#82b366;" vertex="1" parent="1">
          <mxGeometry x="40" y="240" width="50" height="40" as="geometry" />
        </mxCell>
        <mxCell id="nnut025kbKoRGma_upQM-15" value="" style="edgeStyle=orthogonalEdgeStyle;rounded=0;orthogonalLoop=1;jettySize=auto;html=1;" edge="1" parent="1" source="nnut025kbKoRGma_upQM-12">
          <mxGeometry relative="1" as="geometry">
            <mxPoint x="180" y="240" as="targetPoint" />
          </mxGeometry>
        </mxCell>
        <mxCell id="nnut025kbKoRGma_upQM-12" value="fast" style="text;html=1;align=center;verticalAlign=middle;resizable=0;points=[];autosize=1;strokeColor=none;fillColor=none;" vertex="1" parent="1">
          <mxGeometry x="160" y="178" width="40" height="30" as="geometry" />
        </mxCell>
        <mxCell id="nnut025kbKoRGma_upQM-14" value="" style="edgeStyle=orthogonalEdgeStyle;rounded=0;orthogonalLoop=1;jettySize=auto;html=1;" edge="1" parent="1" source="nnut025kbKoRGma_upQM-13">
          <mxGeometry relative="1" as="geometry">
            <mxPoint x="180" y="280" as="targetPoint" />
          </mxGeometry>
        </mxCell>
        <mxCell id="nnut025kbKoRGma_upQM-13" value="slow" style="text;html=1;align=center;verticalAlign=middle;resizable=0;points=[];autosize=1;strokeColor=none;fillColor=none;" vertex="1" parent="1">
          <mxGeometry x="155" y="308" width="50" height="30" as="geometry" />
        </mxCell>
        <mxCell id="nnut025kbKoRGma_upQM-16" value="1. 找中点，快指针每次走两步，慢指针每次走一步&lt;div&gt;慢指针到达终点的时候，慢指针到达中点&lt;/div&gt;" style="text;html=1;align=center;verticalAlign=middle;resizable=0;points=[];autosize=1;strokeColor=none;fillColor=none;" vertex="1" parent="1">
          <mxGeometry x="-5" y="353" width="290" height="40" as="geometry" />
        </mxCell>
        <mxCell id="nnut025kbKoRGma_upQM-17" value="fast 走得比 slow 快一倍，所以当 fast 走到链表末尾时，&lt;div&gt;slow 只走了它的一半距离，自然就停在中点&lt;/div&gt;" style="text;html=1;align=center;verticalAlign=middle;resizable=0;points=[];autosize=1;strokeColor=none;fillColor=none;" vertex="1" parent="1">
          <mxGeometry x="285" y="353" width="320" height="40" as="geometry" />
        </mxCell>
        <mxCell id="nnut025kbKoRGma_upQM-18" value="" style="edgeStyle=orthogonalEdgeStyle;rounded=0;orthogonalLoop=1;jettySize=auto;html=1;" edge="1" parent="1" source="nnut025kbKoRGma_upQM-19" target="nnut025kbKoRGma_upQM-21">
          <mxGeometry relative="1" as="geometry" />
        </mxCell>
        <mxCell id="nnut025kbKoRGma_upQM-19" value="1" style="ellipse;whiteSpace=wrap;html=1;aspect=fixed;" vertex="1" parent="1">
          <mxGeometry x="180" y="522" width="40" height="40" as="geometry" />
        </mxCell>
        <mxCell id="nnut025kbKoRGma_upQM-20" value="" style="edgeStyle=orthogonalEdgeStyle;rounded=0;orthogonalLoop=1;jettySize=auto;html=1;" edge="1" parent="1" source="nnut025kbKoRGma_upQM-21" target="nnut025kbKoRGma_upQM-23">
          <mxGeometry relative="1" as="geometry" />
        </mxCell>
        <mxCell id="nnut025kbKoRGma_upQM-21" value="2" style="ellipse;whiteSpace=wrap;html=1;" vertex="1" parent="1">
          <mxGeometry x="260" y="522" width="40" height="40" as="geometry" />
        </mxCell>
        <mxCell id="nnut025kbKoRGma_upQM-22" value="" style="edgeStyle=orthogonalEdgeStyle;rounded=0;orthogonalLoop=1;jettySize=auto;html=1;" edge="1" parent="1" source="nnut025kbKoRGma_upQM-23" target="nnut025kbKoRGma_upQM-25">
          <mxGeometry relative="1" as="geometry" />
        </mxCell>
        <mxCell id="nnut025kbKoRGma_upQM-23" value="2" style="ellipse;whiteSpace=wrap;html=1;" vertex="1" parent="1">
          <mxGeometry x="340" y="522" width="40" height="40" as="geometry" />
        </mxCell>
        <mxCell id="nnut025kbKoRGma_upQM-24" value="" style="edgeStyle=orthogonalEdgeStyle;rounded=0;orthogonalLoop=1;jettySize=auto;html=1;" edge="1" parent="1" source="nnut025kbKoRGma_upQM-25">
          <mxGeometry relative="1" as="geometry">
            <mxPoint x="500" y="542" as="targetPoint" />
          </mxGeometry>
        </mxCell>
        <mxCell id="nnut025kbKoRGma_upQM-25" value="1" style="ellipse;whiteSpace=wrap;html=1;" vertex="1" parent="1">
          <mxGeometry x="420" y="522" width="40" height="40" as="geometry" />
        </mxCell>
        <mxCell id="nnut025kbKoRGma_upQM-26" value="null" style="text;html=1;align=center;verticalAlign=middle;resizable=0;points=[];autosize=1;strokeColor=none;fillColor=none;" vertex="1" parent="1">
          <mxGeometry x="510" y="527" width="40" height="30" as="geometry" />
        </mxCell>
        <mxCell id="nnut025kbKoRGma_upQM-27" value="2" style="rounded=0;whiteSpace=wrap;html=1;fillColor=#d5e8d4;strokeColor=#82b366;" vertex="1" parent="1">
          <mxGeometry x="60" y="522" width="50" height="40" as="geometry" />
        </mxCell>
        <mxCell id="nnut025kbKoRGma_upQM-32" value="" style="edgeStyle=orthogonalEdgeStyle;rounded=0;orthogonalLoop=1;jettySize=auto;html=1;" edge="1" parent="1" source="nnut025kbKoRGma_upQM-29" target="nnut025kbKoRGma_upQM-26">
          <mxGeometry relative="1" as="geometry" />
        </mxCell>
        <mxCell id="nnut025kbKoRGma_upQM-29" value="fast" style="text;html=1;align=center;verticalAlign=middle;resizable=0;points=[];autosize=1;strokeColor=none;fillColor=none;" vertex="1" parent="1">
          <mxGeometry x="510" y="470" width="40" height="30" as="geometry" />
        </mxCell>
        <mxCell id="nnut025kbKoRGma_upQM-30" value="" style="edgeStyle=orthogonalEdgeStyle;rounded=0;orthogonalLoop=1;jettySize=auto;html=1;" edge="1" parent="1">
          <mxGeometry relative="1" as="geometry">
            <mxPoint x="360" y="590" as="sourcePoint" />
            <mxPoint x="360" y="562" as="targetPoint" />
            <Array as="points">
              <mxPoint x="360" y="570" />
              <mxPoint x="360" y="570" />
            </Array>
          </mxGeometry>
        </mxCell>
        <mxCell id="nnut025kbKoRGma_upQM-31" value="slow" style="text;html=1;align=center;verticalAlign=middle;resizable=0;points=[];autosize=1;strokeColor=none;fillColor=none;" vertex="1" parent="1">
          <mxGeometry x="335" y="590" width="50" height="30" as="geometry" />
        </mxCell>
        <mxCell id="nnut025kbKoRGma_upQM-33" value="2. 反转后半部份链表，从中点开始，将&lt;div&gt;链表的后半部份原地反转&lt;/div&gt;" style="text;html=1;align=center;verticalAlign=middle;resizable=0;points=[];autosize=1;strokeColor=none;fillColor=none;" vertex="1" parent="1">
          <mxGeometry x="-5" y="615" width="230" height="40" as="geometry" />
        </mxCell>
        <mxCell id="nnut025kbKoRGma_upQM-34" value="" style="edgeStyle=orthogonalEdgeStyle;rounded=0;orthogonalLoop=1;jettySize=auto;html=1;" edge="1" parent="1" source="nnut025kbKoRGma_upQM-35" target="nnut025kbKoRGma_upQM-37">
          <mxGeometry relative="1" as="geometry" />
        </mxCell>
        <mxCell id="nnut025kbKoRGma_upQM-35" value="1" style="ellipse;whiteSpace=wrap;html=1;aspect=fixed;" vertex="1" parent="1">
          <mxGeometry x="190" y="772" width="40" height="40" as="geometry" />
        </mxCell>
        <mxCell id="nnut025kbKoRGma_upQM-36" value="" style="edgeStyle=orthogonalEdgeStyle;rounded=0;orthogonalLoop=1;jettySize=auto;html=1;" edge="1" parent="1" source="nnut025kbKoRGma_upQM-37" target="nnut025kbKoRGma_upQM-39">
          <mxGeometry relative="1" as="geometry" />
        </mxCell>
        <mxCell id="nnut025kbKoRGma_upQM-37" value="2" style="ellipse;whiteSpace=wrap;html=1;" vertex="1" parent="1">
          <mxGeometry x="270" y="772" width="40" height="40" as="geometry" />
        </mxCell>
        <mxCell id="nnut025kbKoRGma_upQM-38" value="" style="edgeStyle=orthogonalEdgeStyle;rounded=0;orthogonalLoop=1;jettySize=auto;html=1;" edge="1" parent="1" source="nnut025kbKoRGma_upQM-39" target="nnut025kbKoRGma_upQM-41">
          <mxGeometry relative="1" as="geometry" />
        </mxCell>
        <mxCell id="nnut025kbKoRGma_upQM-39" value="1" style="ellipse;whiteSpace=wrap;html=1;" vertex="1" parent="1">
          <mxGeometry x="350" y="772" width="40" height="40" as="geometry" />
        </mxCell>
        <mxCell id="nnut025kbKoRGma_upQM-40" value="" style="edgeStyle=orthogonalEdgeStyle;rounded=0;orthogonalLoop=1;jettySize=auto;html=1;" edge="1" parent="1" source="nnut025kbKoRGma_upQM-41">
          <mxGeometry relative="1" as="geometry">
            <mxPoint x="510" y="792" as="targetPoint" />
          </mxGeometry>
        </mxCell>
        <mxCell id="nnut025kbKoRGma_upQM-41" value="2" style="ellipse;whiteSpace=wrap;html=1;" vertex="1" parent="1">
          <mxGeometry x="430" y="772" width="40" height="40" as="geometry" />
        </mxCell>
        <mxCell id="nnut025kbKoRGma_upQM-42" value="null" style="text;html=1;align=center;verticalAlign=middle;resizable=0;points=[];autosize=1;strokeColor=none;fillColor=none;" vertex="1" parent="1">
          <mxGeometry x="520" y="777" width="40" height="30" as="geometry" />
        </mxCell>
        <mxCell id="nnut025kbKoRGma_upQM-43" value="2" style="rounded=0;whiteSpace=wrap;html=1;fillColor=#d5e8d4;strokeColor=#82b366;" vertex="1" parent="1">
          <mxGeometry x="70" y="772" width="50" height="40" as="geometry" />
        </mxCell>
        <mxCell id="nnut025kbKoRGma_upQM-44" value="" style="edgeStyle=orthogonalEdgeStyle;rounded=0;orthogonalLoop=1;jettySize=auto;html=1;" edge="1" parent="1" source="nnut025kbKoRGma_upQM-45" target="nnut025kbKoRGma_upQM-42">
          <mxGeometry relative="1" as="geometry" />
        </mxCell>
        <mxCell id="nnut025kbKoRGma_upQM-45" value="fast" style="text;html=1;align=center;verticalAlign=middle;resizable=0;points=[];autosize=1;strokeColor=none;fillColor=none;" vertex="1" parent="1">
          <mxGeometry x="520" y="720" width="40" height="30" as="geometry" />
        </mxCell>
        <mxCell id="nnut025kbKoRGma_upQM-46" value="" style="edgeStyle=orthogonalEdgeStyle;rounded=0;orthogonalLoop=1;jettySize=auto;html=1;" edge="1" parent="1">
          <mxGeometry relative="1" as="geometry">
            <mxPoint x="370" y="840" as="sourcePoint" />
            <mxPoint x="370" y="812" as="targetPoint" />
            <Array as="points">
              <mxPoint x="370" y="820" />
              <mxPoint x="370" y="820" />
            </Array>
          </mxGeometry>
        </mxCell>
        <mxCell id="nnut025kbKoRGma_upQM-47" value="slow" style="text;html=1;align=center;verticalAlign=middle;resizable=0;points=[];autosize=1;strokeColor=none;fillColor=none;" vertex="1" parent="1">
          <mxGeometry x="345" y="840" width="50" height="30" as="geometry" />
        </mxCell>
        <mxCell id="nnut025kbKoRGma_upQM-48" value="3.比较回文，从head和反转后的slow同时向前走，&lt;div&gt;逐个比较节点值，如果不相等，直接返回false&lt;/div&gt;" style="text;html=1;align=center;verticalAlign=middle;resizable=0;points=[];autosize=1;strokeColor=none;fillColor=none;" vertex="1" parent="1">
          <mxGeometry y="910" width="290" height="40" as="geometry" />
        </mxCell>
        <mxCell id="nnut025kbKoRGma_upQM-50" value="" style="edgeStyle=orthogonalEdgeStyle;rounded=0;orthogonalLoop=1;jettySize=auto;html=1;" edge="1" parent="1" source="nnut025kbKoRGma_upQM-49" target="nnut025kbKoRGma_upQM-35">
          <mxGeometry relative="1" as="geometry" />
        </mxCell>
        <mxCell id="nnut025kbKoRGma_upQM-49" value="head" style="text;html=1;align=center;verticalAlign=middle;resizable=0;points=[];autosize=1;strokeColor=none;fillColor=none;" vertex="1" parent="1">
          <mxGeometry x="185" y="850" width="50" height="30" as="geometry" />
        </mxCell>
      </root>
    </mxGraphModel>
  </diagram>
</mxfile>
